<?xml version="1.0" encoding="UTF-8" standalone="no"?>
<svg
   width="1087"
   height="1382"
   viewBox="0 0 1087 1382"
   version="1.1"
   id="svg101"
   sodipodi:docname="image.svg"
   inkscape:version="1.4 (86a8ad7, 2024-10-11)"
   xmlns:inkscape="http://www.inkscape.org/namespaces/inkscape"
   xmlns:sodipodi="http://sodipodi.sourceforge.net/DTD/sodipodi-0.dtd"
   xmlns="http://www.w3.org/2000/svg"
   xmlns:svg="http://www.w3.org/2000/svg">
  <sodipodi:namedview
     id="namedview101"
     pagecolor="#ffffff"
     bordercolor="#000000"
     borderopacity="0.25"
     inkscape:showpageshadow="2"
     inkscape:pageopacity="0.0"
     inkscape:pagecheckerboard="0"
     inkscape:deskcolor="#d1d1d1"
     inkscape:zoom="0.52255917"
     inkscape:cx="421.96178"
     inkscape:cy="598.0184"
     inkscape:window-width="2880"
     inkscape:window-height="1694"
     inkscape:window-x="-11"
     inkscape:window-y="-11"
     inkscape:window-maximized="1"
     inkscape:current-layer="svg101" />
  <path
     d="m 324.82522,253.57869 c -23.302,-1.16998 -54.5401,-0.27479 -78.0761,-0.21679 l -134.93951,0.0391 -0.01,404.11719 -0.004,125.07812 c -0.006,24.457 -0.90697,53.93949 1.20703,78.02149 2.876,32.085 9.51153,63.72181 19.76953,94.25781 50.245,151.14299 212.96775,268.93219 340.80275,352.49219 15.744,10.18 31.648,20.1208 47.707,29.8008 6.425,3.88 19.6137,11.0995 24.9727,15.2695 0.8525,0.7371 2.6649,2.087 3.0703,2.123 0.3415,0.03 2.5265,-0.9489 3.4687,-2.123 7.954,-5.41 18.3672,-11.0206 26.7832,-16.1406 16.443,-10.1 32.7816,-20.3786 49.0176,-30.8086 80.077,-51.97 153.9062,-105.2713 220.9922,-173.5313 55.854,-56.84 97.9661,-114.7086 121.8301,-192.01558 20.086,-65.064 16.292,-122.01479 16.289,-188.80079 l -0.01,-138.50976 -0.098,-359.29688 c -39.625,-0.70295 -81.1136,-0.0425 -120.8906,-0.0644 l -44.6777,-0.043 c -9.055,-0.006 -20.0291,-0.29675 -28.8711,0.53125"
     style="fill:#000000;fill-opacity:1;stroke:#000000;stroke-width:8"
     id="path1" />
  <path
     id="path104"
     d="m 862.29688,239.66406 c -19.98001,-0.0591 -39.94755,-0.0323 -59.56055,0.30274 -3.319,4.25 -6.69463,8.97851 -9.89063,13.35351 8.842,-0.828 19.8161,-0.53725 28.8711,-0.53125 l 44.67773,0.043 c 39.777,0.022 81.26563,-0.63855 120.89063,0.0644 l 0.0976,359.29688 0.01,138.50976 c 0.003,66.786 3.79694,123.73679 -16.28906,188.80079 -23.864,77.30701 -65.97608,135.17561 -121.83008,192.01561 -67.086,68.26 -140.91519,121.5613 -220.99219,173.5313 -16.236,10.43 -32.57458,20.7086 -49.01758,30.8086 -8.416,5.12 -18.8292,10.7306 -26.7832,16.1406 -0.9422,1.1741 -3.12822,2.1536 -3.46968,2.1231 -0.40535,-0.036 -2.21684,-1.386 -3.06938,-2.1231 -5.359,-4.17 -18.54766,-11.3895 -24.97266,-15.2695 -16.059,-9.68 -31.96303,-19.6208 -47.70703,-29.8008 -127.835,-83.56 -290.55774,-201.3492 -340.80274,-352.49222 -10.258,-30.536 -16.89353,-62.17281 -19.76953,-94.25781 -2.114,-24.082 -1.21303,-53.56449 -1.20703,-78.02149 l 0.004,-125.07812 0.01,-404.11719 134.93946,-0.0391 c 23.536,-0.058 54.77417,-0.9532 78.07617,0.21679 -4.353,-4.76199 -6.08877,-8.36685 -9.75977,-12.88085 -7.213,-0.848 -22.28717,-0.43274 -30.07617,-0.42774 l -56.14648,0.0352 -78.76758,-0.0234 c -13.684,-0.005 -27.56977,-0.10823 -41.25977,0.13477 -2.659,0.047 -5.98037,0.81062 -7.98437,2.51562 -1.741902,1.482 -1.583071,10.37367 -1.605471,12.76367 l 0.05664,390.57031 -0.01367,137.7793 c -0.0252,54.669 -1.619825,93.66425 13.046871,147.28125 53.119,194.18101 247.9956,320.37131 408.1836,421.11131 18.12324,11.348 25.32161,14.3283 27.64257,13.5586 4.6581,-0.3912 15.3693,-5.5008 30.83594,-13.5586 6.429,-4.86 22.39964,-14.1593 29.80664,-18.7793 17.396,-10.83 34.61349,-21.9398 51.64649,-33.3398 68.4,-45.58 132.62851,-93.9802 191.35351,-151.6602 86.149,-84.6 147.22835,-186.52824 148.40235,-310.44724 l -0.0117,-344.19727 0.0566,-158.34961 c -0.005,-27.471 0.0505,-54.94397 -0.14453,-82.41797 -0.059,-8.352 0.28587,-12.20128 -9.49414,-12.73828 -8.233,-0.453 -16.52544,-0.24933 -24.77344,-0.23633 l -43.57422,0.0391 c -19.662,-0.006 -39.65476,-0.14986 -59.63476,-0.20899 z"
     style="display:inline;fill:#bf9d53;fill-opacity:1"
     sodipodi:nodetypes="sccccccccccccscccccccccccccccscccccccccccccccccss" />
  <path
     fill="#bf9d53"
     d="M 422.199,4.55059 C 416.496,11.683 410.628,18.7104 405.134,25.8823 364.223,79.2504 362.131,157.796 415.987,203.496 c 8.62,7.314 19.689,11.441 27.935,17.996 6.031,4.793 -6.87,27.289 -6.113,32.494 -3.181,0.866 -13.752,18.309 -17.675,22.505 -8.118,8.681 -13.269,13.397 -22.679,20.534 -24.111,-10.312 -37.137,-24.199 -54.348,-42.882 -5.042,0.021 -11.609,0.278 -16.458,-0.534 l 15.322,-0.068 C 283.588,167.166 319.779,72.5418 401.293,17.7866 408.156,13.2095 415.127,8.79622 422.199,4.55059 Z"
     id="path5" />
  <path
     fill="#bf9d53"
     d="m 696.064,5.10915 c 9.563,5.79645 19.139,11.42475 28.199,18.06035 35.111,25.7142 64.501,61.2952 75.429,104.0355 10.576,41.357 3.801,81.042 -18.339,117.13 -2.232,3.637 -3.733,5.932 -6.56,9.253 3.921,-0.006 13.808,-0.244 17.267,0.094 -5.045,0.785 -13.248,0.517 -18.381,0.221 -17.804,20.421 -29.607,31.067 -53.92,43.083 -17.824,-12.538 -27.109,-24.4 -37.816,-42.719 -4.279,-0.057 -7.407,-0.13 -11.643,-0.602 3.665,-0.06 7.005,-0.145 10.67,0.089 -3.141,-6.209 -10.351,-23.791 -7.837,-31.199 0.666,-1.961 15.746,-9.903 18.889,-11.884 40.281,-25.4 55.776,-70.023 50.172,-115.9746 C 737.716,57.9735 718.57,32.5577 696.064,5.10915 Z"
     id="path6" />
  <path
     fill="#bf9d53"
     d="M 495.807,239.752 577.2,239.75 c 14.741,0.001 30.768,-0.305 45.426,0.212 2.349,3.6 5.068,9.349 7.084,13.305 -6.866,-0.785 -20.572,-0.452 -27.938,-0.455 l -48.53,-0.008 -41.288,0.014 c -5.856,0.004 -18.177,-0.277 -23.476,0.516 2.427,-4.76 4.616,-8.941 7.329,-13.582 z"
     id="path7" />
  <path
     fill="#bf9d53"
     d="m 449.847,253.571 c 2.784,-6.343 4.673,-10.799 6.378,-17.668 0.911,-3.671 0.57,-11.494 1.813,-13.838 5.047,-1.961 14.417,4.992 16.101,9.665 2.451,6.801 1.494,15.334 0.272,22.298 -1.117,1.291 -2.845,6.884 -3.412,8.724 -5.207,16.903 -15.425,30.65 -26.851,43.964 10.28,-19.538 12.165,-26.978 17.644,-48.214 -3.863,4.544 -8.733,12.92 -12.494,18.136 -15.734,21.818 -30.123,31.137 -54.353,41.056 22.891,-17.287 44.057,-36.576 55.737,-63.572 -3.951,0.006 -7.901,-0.028 -11.851,-0.099 4.186,-0.483 6.775,-0.489 11.016,-0.452 z"
     id="path8" />
  <path
     fill="#bf9d53"
     d="m 642.787,253.477 c -1.322,-5.44 -1.479,-18.138 1.782,-22.869 4.606,-6.683 8.296,-7.473 15.317,-9.44 2.039,15.682 1.527,15.774 7.283,31.798 -0.2,8.547 17.813,31.382 24.316,37.995 8.691,8.838 20.574,19.411 30.799,26.622 -6.766,-2.819 -15.355,-6.238 -21.49,-10.102 -19.56,-12.318 -34.11,-29.479 -43.811,-50.195 1.741,20.668 7.28,32.424 16.427,50.357 -8.494,-9.564 -18.05,-22.808 -23.34,-34.621 -1.393,-3.111 -5.746,-18.482 -7.283,-19.545 z"
     id="path9" />
  <path
     fill="#582324"
     d="m 151.084,613.647 c 12.547,-1.814 22.218,-0.388 34.226,-0.795 20.65,-0.7 41.481,0.425 61.909,0.226 l 263.813,-0.763 c 16.644,0.033 32.404,1.874 49.265,0.05 5.213,-0.564 14.453,0.694 20.211,0.66 92.145,-0.855 184.297,-0.855 276.443,-10e-4 19.705,0.254 40.398,-0.915 60.243,-0.408 10.068,0.257 20.47,-0.653 30.426,1.154 l 0.107,147.063 c -0.117,28.879 0.685,57.918 -0.963,86.907 -2.677,47.198 -14.419,91.94 -34.239,134.789 -3.152,6.815 -8.758,15.405 -12.618,22.091 -11.875,20.59 -28.6,46.78 -45.349,63.41 l -108.434,0.02 c -14.14,-0.04 -109.055,-1.2 -115.904,1.63 12.088,17.34 17.223,29.41 20.1,50.82 0.064,1.2 0.095,2.68 0.257,3.84 1.434,13.37 -1.239,31.21 -6.038,43.96 -19.828,52.66 -77.576,81.53 -131.05,60.88 -25.675,-10.13 -46.282,-30.03 -57.294,-55.35 -12.805,-29.32 -10.954,-56 0.322,-85.2 1.665,-3.2 3.382,-6.38 5.148,-9.52 1.957,-3.66 4.524,-7.11 6.924,-10.5 -8.397,-0.99 -23.497,-0.56 -32.519,-0.56 l -49.659,-0.05 -142.302,0.08 c -12.359,-12.71 -27.06,-34.19 -36.806,-49.18 -33.628,-51.703 -55.985,-120.327 -56.026,-182.529 -0.046,-69.897 -1.381,-141.156 -0.439,-211.192 0.052,-3.845 0.134,-7.689 0.246,-11.532 z"
     id="path10" />
  <path
     fill="#e6dec0"
     d="m 468.589,1068.61 c 44.09,-53.47 118.476,-53.45 161.631,1.07 12.088,17.34 17.223,29.41 20.1,50.82 0.064,1.2 0.095,2.68 0.257,3.84 1.434,13.37 -1.239,31.21 -6.038,43.96 -19.828,52.66 -77.576,81.53 -131.05,60.88 -25.675,-10.13 -46.282,-30.03 -57.294,-55.35 -12.805,-29.32 -10.954,-56 0.322,-85.2 1.665,-3.2 3.382,-6.38 5.148,-9.52 1.957,-3.66 4.524,-7.11 6.924,-10.5 z"
     id="path11" />
  <path
     fill="#1e1e1d"
     d="m 540.382,1037.39 c 52.385,-4.84 98.776,33.71 103.616,86.11 4.841,52.4 -33.702,98.8 -86.087,103.64 -52.383,4.84 -98.77,-33.71 -103.611,-86.11 -4.84,-52.39 33.7,-98.79 86.082,-103.64 z"
     id="path12" />
  <path
     fill="#e6dec0"
     d="m 515.394,1060.37 c 10.681,1.95 20.846,5.54 31.083,9.09 l 0.006,33.01 c -10.351,6.9 -20.344,16.12 -30.708,23.6 l -0.333,0.32 c -3.413,0.86 -23.628,-6.75 -28.972,-8.42 l -0.003,-32.69 c 5.833,-6.19 21.877,-20.32 28.927,-24.91 z"
     id="path13" />
  <path
     fill="#e6dec0"
     d="m 580.579,1060.98 c 7.402,-0.66 26.14,18.66 31.804,24.5 0.011,10.49 -0.314,21.3 -0.5,31.81 -7.783,3.29 -18.563,6.09 -27,8.87 -3.431,0.61 -28.111,-20.42 -32.531,-24.02 l -0.03,-32.47 c 9.204,-3.24 18.721,-6.64 28.257,-8.69 z"
     id="path14" />
  <path
     fill="#e6dec0"
     d="m 611.67,1123.05 0.968,0.01 c 3.126,2.37 12.062,22.2 14.129,26.95 -1.985,7.81 -7.181,22.38 -11.569,29.13 -4.235,6.51 -20.005,10.85 -27.676,12.1 -5.291,-7.04 -11.431,-15.72 -16.179,-23 5.25,-11.37 8.968,-25.13 14.292,-36.66 7.402,-3.18 18.222,-6.34 26.035,-8.53 z"
     id="path15" />
  <path
     fill="#e6dec0"
     d="m 484.689,1123.22 c 7.53,1.65 19.877,5.79 27.619,8.11 4.09,7.89 10.944,28.22 13.941,37.24 -4.197,7.7 -9.349,14.45 -14.808,21.26 l -1.284,0.98 c -3.991,0.25 -16.07,-4.41 -19.847,-5.89 -10.342,-4.05 -14.971,-23.76 -18.793,-34.86 2.949,-7.73 9.237,-19.37 13.172,-26.84 z"
     id="path16" />
  <path
     fill="#e6dec0"
     d="m 533.122,1172.1 34.649,0.08 c 4.302,4.78 12.347,17.06 15.717,22.64 -4.434,5.37 -10.393,18.22 -17.053,19.76 -11.966,0.02 -24.481,0.23 -36.397,-0.27 -5.218,-6.51 -10.294,-13.14 -15.225,-19.87 3.974,-6.22 8.188,-12.6 12.535,-18.55 2.315,-3.17 2.459,-3.33 5.774,-3.79 z"
     id="path17" />
  <path
     fill="#e6dec0"
     d="m 516.525,1046.39 c 0.599,0.49 0.331,0.3 0.538,1.42 -4.902,11.05 -16.802,17.81 -25.55,25.92 -5.373,4.99 -8.867,7.67 -16.281,7.71 l -0.661,-1.08 c 6.195,-13.58 27.946,-28.68 41.954,-33.97 z"
     id="path18" />
  <path
     fill="#e6dec0"
     d="m 581.63,1046.63 c 15.049,1.81 35.498,23.14 43.829,35.22 -1.566,0.03 -6.046,0.19 -7.44,-0.6 -10.899,-6.13 -23.438,-17.97 -32.172,-26.99 -1.401,-1.44 -3.482,-6.03 -4.217,-7.63 z"
     id="path19" />
  <path
     fill="#e6dec0"
     d="m 459.832,1147.1 c 1.386,0.33 5.449,1.13 5.834,2.29 3.438,10.3 15.301,31.59 14.678,41.75 -10.903,-11.52 -17.994,-28.48 -20.512,-44.04 z"
     id="path20" />
  <path
     fill="#e6dec0"
     d="m 638.743,1145.89 c 0.275,12.61 -11.751,34.66 -19.366,44.95 -0.907,-2.57 -1.284,-4.83 -0.141,-7.66 4.382,-10.84 8.382,-23.36 14.06,-33.45 0.822,-1.47 3.986,-3.06 5.447,-3.84 z"
     id="path21" />
  <path
     fill="#e6dec0"
     d="m 522.335,1049.61 c 10.46,1.52 19.815,3.96 30.509,3.71 6.375,-0.16 22.748,-5.78 26.783,-1.25 l -0.074,1.17 -1.503,0.84 c -6.72,0.92 -23.693,4.57 -29.401,3.98 -8.046,-0.83 -20.05,-2.5 -28.044,-3.92 -0.101,-2.13 0.486,-2.29 1.73,-4.53 z"
     id="path22" />
  <path
     fill="#e6dec0"
     d="m 473.334,1085.13 2.932,0.5 c 1.067,2.13 -4.879,11.33 -4.909,13.95 -0.175,15.25 -3.995,30.07 -5.666,44.84 -2.024,-1.1 -2.14,-1.14 -3.631,-2.85 0.053,-7.32 2.352,-13.77 3.177,-20.61 1.739,-14.4 -1.211,-23.19 8.097,-35.83 z"
     id="path23" />
  <path
     fill="#e6dec0"
     d="m 622.502,1085.67 c 11.649,1.09 7.913,27.08 9.175,35.3 0.681,4.43 5.556,18.04 4.248,21.19 l -3.188,2.16 c -1.052,-1.16 -5.096,-21.89 -5.176,-24.5 -0.408,-13.17 -0.708,-21.45 -5.059,-34.15 z"
     id="path24" />
  <path
     fill="#e6dec0"
     d="m 528.649,1218.65 c 5.541,-0.07 38.623,-0.6 42.063,1.72 l 0.089,0.95 -1.698,0.93 c -6.112,1.38 -39.69,3.75 -42.407,-1.77 z"
     id="path25" />
  <path
     fill="#e6dec0"
     d="m 612.374,1190.27 c 1.185,0.72 0.67,0.26 1.311,1.64 -1.448,2.82 -9.433,5.48 -12.533,6.58 -10.333,3.66 -15.801,13.18 -24.56,19.16 l -1.208,-1.18 c 1.2,-3.05 4.571,-5.83 6.604,-8.4 8.971,-11.34 16.941,-12.97 30.386,-17.8 z"
     id="path26" />
  <path
     fill="#e6dec0"
     d="m 484.718,1190.98 c 4.68,-0.42 14.354,3.73 18.661,6.04 4.915,2.63 18.13,15.3 19.604,20.29 -5.175,-1.2 -13.525,-12.14 -18.742,-15.44 -4.583,-2.9 -18.767,-5.9 -19.523,-10.89 z"
     id="path27" />
  <path
     fill="#bf9d53"
     d="m 549.292,626.547 c 12.09,-4.152 16.726,-3.486 29.278,-1.571 1.761,0.269 6.382,-2.36 7.728,0.162 7.47,13.996 -12.182,27.252 -5.89,43.192 6.705,16.782 17.629,31.232 26.493,46.88 32.164,50.306 41.739,105.662 38.451,164.421 -1.69,30.209 -4.345,72.787 -38.079,26.844 -2.78,16.346 -6.253,23.521 -12.451,38.364 3.558,5.124 6.451,8.361 9.7,14.109 9.854,17.43 8.792,36.252 7.607,55.492 -10.425,-6.62 -21.102,-12.41 -30.637,-19.898 -5.432,-4.267 -9.48,-13.862 -12.141,-14.821 -15.74,6.177 -23.356,3.659 -39.017,-0.729 -9.314,21.848 -23.934,21.998 -41.222,35.368 -0.119,-0.69 -0.229,-1.39 -0.331,-2.09 -4.049,-27.763 1.86,-46.526 18.057,-68.167 l -11.747,-37.396 c -5.186,5.395 -15.875,17.31 -22.824,19.079 -18.534,4.716 -15.827,-33.482 -16.239,-42.624 -2.643,-58.565 3.611,-116.064 37.012,-166.05 9.8,-14.665 21.719,-33.101 28.214,-49.731 6.605,-20.835 -29.996,-38.901 11.865,-43.952 6.515,-0.524 10.288,0.607 16.173,3.118 z"
     id="path28" />
  <path
     fill="#582324"
     d="m 538.296,628.911 c 2.924,1.083 8.018,2.327 11.181,3.194 4.001,-1.431 8.162,-3.545 12.126,-2.25 0.791,0.753 1.871,1.903 2.042,3.037 2.817,18.684 1.687,54.327 -20.518,60.857 2.293,15.573 3.543,28.458 -6.128,42.45 -4.892,7.079 -13.175,12.681 -21.752,14.147 11.426,24.536 7.668,45.071 -11.484,64.589 19.508,0.897 42.204,8.107 57.841,19.766 16.358,12.198 45.35,41.657 53.596,59.957 -3.657,-3.353 -10.822,-13.702 -14.686,-18.431 -14.762,-18.065 -37.965,-40.15 -59.647,-49.695 15.854,12.463 27.87,23.958 41.705,38.584 7.905,8.504 15.532,17.264 22.867,26.264 7.625,9.331 14.115,19.788 25.309,24.815 9.835,-19.889 2.411,-51.547 -1.536,-72.505 -8.964,-47.599 -28.392,-93.605 -62.336,-128.81 -6.038,-6.263 -12.991,-12.1 -19.447,-18.038 l 0.303,-0.28 -1.31,-0.913 c 2.783,1.438 10.974,8.187 13.648,10.484 31.627,27.171 52.237,65.821 64.468,105.095 2.603,8.6 4.886,17.293 6.846,26.062 1.346,5.884 2.646,13.388 4.829,18.857 0.557,-52.99 -11.458,-95.629 -39.74,-140.567 -13.63,-21.658 -36.935,-52.091 -18.39,-76.596 1.247,-1.648 1.041,-6.638 3.574,-8.765 l 0.76,1.112 c 0.578,6.704 -6.302,16.589 -7.653,22.803 -4.198,19.299 23.397,56.662 33.902,74.347 24.232,43.644 33.802,89.706 31.195,139.454 -0.584,11.133 0.708,43.935 -7.017,51.919 -8.444,4.034 -23.552,-18.242 -29.076,-23.671 l -0.624,-0.607 c -1.414,8.136 -1.9,19.009 -4.391,26.662 -2.893,8.885 -6.935,14.299 -9.006,24.01 2.337,3.812 6.215,8.058 9.004,12.517 9.207,14.719 8.529,29.396 8.653,46.105 -19.36,-11.968 -24.179,-10.5 -35.224,-32.392 -14.682,6.154 -28.787,9.148 -42.692,-0.998 -11.492,22.271 -16.109,22.033 -36.612,34.32 -0.237,-15.809 0.988,-33.198 9.569,-46.925 2.835,-4.535 6.5,-8.725 9.78,-13.043 -1.615,-7.517 -5.557,-15.213 -7.959,-22.643 -2.94,-9.093 -3.902,-18.105 -5.219,-27.534 -4.135,3.697 -30.484,37.558 -35.165,19.833 -3.856,-14.602 -3.344,-37.373 -3.335,-52.809 0.027,-47.665 7.421,-96.298 33.429,-137.218 9.461,-15.288 22.3,-33.973 29.414,-50.065 7.923,-17.923 -0.395,-26.197 -6.888,-41.144 1.682,-1.58 2.166,-2.171 4.163,-3.247 -2.377,13.142 15.785,18.79 8.515,39.094 -9.645,26.939 -28.847,48.977 -41.33,74.204 -15.799,31.928 -24.544,75.806 -22.435,111.161 12.58,-56.872 30.055,-108.948 74.835,-149.154 l -3.472,-16.037 8.494,-1.633 c -6.314,-16.121 -13.824,-42.943 -6.976,-59.729 z"
     id="path29" />
  <path
     fill="#bf9d53"
     d="m 537.711,897.498 c 2.157,0.961 3.199,1.213 4.775,2.887 0.105,2.536 -1.756,4.436 -3.31,7.265 l 0.22,0.484 c 5.716,-4.015 14.278,-3.741 20.661,-1.419 l 0.323,-0.387 -0.398,-0.717 c -1.423,-2.588 -2.498,-4.006 -1.075,-6.931 6.285,-0.74 15.072,11.908 19.576,15.701 5.091,4.286 8.685,9.662 9.412,16.277 0.945,6.322 -2.992,10.586 -2.178,16.501 0.507,2.528 6.534,8.181 8.133,10.444 8.794,12.45 9.925,26.018 10.461,40.359 -7.691,-8.005 -10.07,-9.87 -15.588,-19.441 2.489,-2.823 4.786,-5.325 6.946,-8.418 -2.968,2.854 -4.122,4.372 -8.131,5.266 l -1.408,-0.275 -0.561,-0.95 c 0.618,-2.334 0.552,-2.22 2.149,-4.025 l -0.582,-0.922 c -1.816,1.325 -2.216,1.001 -3.733,-0.155 -0.797,-3.352 0.068,-3.639 2.178,-5.746 l -1.119,-0.62 -1.358,0.376 c -1.314,-1.275 -3.18,-7.895 -3.956,-10.133 -0.826,21.902 5.186,29.338 20.518,43.836 -16.171,-10.55 -21.335,-17.254 -27.351,-35.394 -0.879,1.989 -2.268,5.345 -3.871,6.671 -13.263,10.965 -30.665,7.062 -40.372,-5.46 -5.285,16.094 -10.372,24.501 -25.662,33.102 11.11,-10.88 19.183,-19.803 19.733,-36.668 0.053,-1.648 0.043,-2.603 -0.45,-4.184 l -1.001,-0.207 c -2.779,2.185 0.034,4.945 -1.989,7.745 -2.916,0.221 -4.712,-1.715 -7.087,-3.576 2.217,2.547 4.73,4.91 5.742,8.027 -0.284,1.822 -0.385,2.595 -2.164,3.711 l -1.038,0.604 c 0.641,2.103 0.734,2.037 0.329,4.135 l -1.196,0.485 c -3.205,-0.98 -5.674,-3.032 -8.457,-4.98 l 7.801,7.431 c -4.793,8.751 -11.794,12.898 -16.678,21.438 -0.492,-12.801 3.451,-31.191 10.971,-41.559 2.566,-3.537 5.431,-5.684 8.074,-9.247 2.916,-3.93 -1.161,-10.132 -1.661,-14.563 -1.309,-11.595 10.251,-19.619 17.055,-27.403 2.953,-3.378 4.81,-5.873 7.317,-9.365 z"
     id="path30" />
  <path
     fill="#bf9d53"
     d="m 539.396,908.134 c 5.716,-4.015 14.278,-3.741 20.661,-1.419 3.99,6.993 -3.529,18.448 -11.7,16.446 -5.56,-1.361 -8.839,-9.945 -8.961,-15.027 z"
     id="path31" />
  <path
     fill="#663a1a"
     d="m 560.38,906.328 c 1.65,3.185 1.833,6.523 0.628,9.974 -6.999,20.052 -25.927,4.845 -21.832,-8.652 l 0.22,0.484 c 0.122,5.082 3.401,13.666 8.961,15.027 8.171,2.002 15.69,-9.453 11.7,-16.446 z"
     id="path32" />
  <path
     fill="#8b6434"
     d="m 514.156,971.126 c -1.988,-1.508 -4.802,-4.203 -5.963,-6.424 l 0.515,-0.474 c 2.912,1.468 4.378,3.738 6.486,6.294 z"
     id="path33" />
  <path
     fill="#8b6434"
     d="m 587.136,969.197 c 1.751,-2.23 2.443,-3.301 4.827,-4.961 l 0.675,0.28 c -1.071,2.4 -2.952,3.786 -4.92,5.603 z"
     id="path34" />
  <path
     fill="#9c7a40"
     d="m 584.462,962.676 c 2.377,-3.317 4.154,-4.806 7.731,-6.84 -1.454,1.661 -5.192,6.157 -6.612,7.46 z"
     id="path35" />
  <path
     fill="#582324"
     d="m 561.393,929.299 c 10.088,0.254 11.991,3.266 13.17,12.594 -8.239,-1.791 -9.984,-5.538 -13.17,-12.594 z"
     id="path36" />
  <path
     fill="#582324"
     d="m 535.517,929.545 2.772,0.085 0.819,0.919 c -0.102,4.48 -5.863,8.467 -9.457,10.444 -1.445,0.33 -1.338,0.333 -2.753,-0.113 -1.409,-4.993 4.558,-9.461 8.619,-11.335 z"
     id="path37" />
  <path
     fill="#bf9d53"
     d="m 508.018,749.064 c 0.802,0.709 0.909,0.887 1.51,1.822 10.389,16.177 9.266,37.109 -2.429,52.347 -2.814,3.667 -10.837,11.928 -11.663,15.719 l 1.723,1.301 c 0.939,2.304 -4.971,12.556 -6.258,15.299 -2.732,5.82 -5.607,11.388 -8.012,17.389 -3.239,8.082 -6.269,16.172 -9.226,24.352 3.321,-30.608 12.483,-64.416 22.919,-93.339 1.545,-4.281 12.524,-25.262 12.057,-26.667 -19.477,30.166 -31.447,76.101 -36.514,111.43 -1.344,9.372 -3.164,19.652 -2.793,29.092 3.147,-6.281 6.408,-16.497 8.73,-23.361 6.141,-18.15 14.169,-34.698 22.758,-51.76 1.246,-2.474 4.951,-2.757 6.731,-1.162 -0.785,2.552 -1.659,4.038 -2.988,6.312 -12.005,20.547 -19.914,42.913 -28.287,65.061 -0.409,1.873 -0.671,2.415 -0.186,4.298 2.876,-1.093 24.562,-32.787 29.138,-37.651 5.754,-6.117 13.538,-15.307 20.384,-20.965 3.855,-3.185 7.38,-8.605 12.326,-5.7 0.501,1.126 0.781,1.078 0.046,1.75 -3.257,2.975 -7.085,6.092 -10.29,9.156 -8.749,8.368 -36.501,38.666 -40.406,49.729 l 0.342,0.377 c 11.874,-17.322 24.726,-33.186 40.855,-46.749 3.624,-3.047 12.289,-11.977 16.815,-10.815 l 0.286,1.279 c -1.814,2.714 -4.292,4.812 -6.62,7.085 -20.231,19.747 -38.191,41.637 -56.884,62.801 -2.299,2.603 -8.754,8.904 -12.44,8.164 -10.733,-11.086 -0.512,-58.099 2.477,-72.806 6.179,-30.403 18.012,-68.232 35.899,-93.788 z"
     id="path38" />
  <path
     fill="#bf9d53"
     d="m 550.581,841.357 c 9.855,8.131 24.562,21.746 32.146,32.063 0.084,3.96 0.054,8.737 0.589,12.581 0.499,-1.609 2.099,-7.213 2.758,-8.425 l 1.354,-0.072 c 3.132,5.602 0.456,13.249 1.6,16.9 1.509,-2.612 2.56,-7.019 2.952,-10.012 l 0.731,-0.35 c 1.689,1.952 1.672,2.197 2.46,4.731 0.321,1.697 0.385,5.287 1.027,5.743 l 0.955,-1.571 c 4.099,5.081 -3.169,30.838 -5.389,37.536 -1.563,-6.585 -4.989,-15.36 -9.041,-20.734 -0.593,0.548 -1.063,1.005 -1.63,1.572 -2.513,-1.742 -1.959,-5.301 -4.186,-6.158 l -0.425,1.778 c -6.985,-5.36 -9.728,-15.167 -18.944,-22.348 -4.906,-0.218 -12.664,-1.022 -16.774,2.376 -3.627,2.998 -13.33,20.07 -16.794,20.83 -0.399,-2.299 0.564,-4.273 1.324,-6.571 -3.455,6.593 -4.404,8.675 -9.691,14.027 l 0.357,-0.894 c -3.403,4.643 -4.801,8.848 -5.616,14.619 -4.627,-14.477 -6.15,-18.868 -6.059,-34.082 l -0.251,-1.205 0.777,-0.409 2.001,1.208 -0.077,-0.504 c -0.885,-5.412 -0.97,-5.599 2.461,-10.002 0.718,-0.15 1.222,-0.488 1.912,-0.833 0.99,-2.387 2.735,-4.828 4.164,-7.03 1.354,0.212 1.378,-0.093 2.867,-0.717 2.92,-8.721 24.694,-28.458 32.442,-34.047 z"
     id="path39" />
  <path
     fill="#663a1a"
     d="m 515.272,876.121 c 1.354,0.212 1.378,-0.093 2.867,-0.717 -0.168,4.442 -0.46,9.348 -0.407,13.754 -2.066,-6.33 -1.275,-9.1 -2.46,-13.037 z"
     id="path40" />
  <path
     fill="#663a1a"
     d="m 595.171,888.773 c 0.321,1.697 0.385,5.287 1.027,5.743 -0.114,2.411 -1.736,9.738 -3.685,10.982 -0.028,-1.408 2.256,-13.553 2.658,-16.725 z"
     id="path41" />
  <path
     fill="#663a1a"
     d="m 509.196,883.984 c 0.718,-0.15 1.222,-0.488 1.912,-0.833 0.663,4.377 1.101,7.68 1.386,12.085 -2.683,-5.231 -1.802,-7.134 -3.298,-11.252 z"
     id="path42" />
  <path
     fill="#663a1a"
     d="m 504.285,894.896 -0.251,-1.205 0.777,-0.409 2.001,1.208 3.132,12.438 c -1.136,-2.262 -4.902,-10.89 -5.659,-12.032 z"
     id="path43" />
  <path
     fill="#663a1a"
     d="m 576.282,872.388 1.458,1.137 c 1.821,4.138 1.249,6.637 0.545,10.955 l -1.443,-0.832 c -0.662,-3.078 -0.53,-7.963 -0.56,-11.26 z"
     id="path44" />
  <path
     fill="#663a1a"
     d="m 529.527,865.916 0.726,1.129 c -0.905,4.161 -1.661,7.841 -2.953,11.897 l -0.792,-1.059 c -0.338,-4.186 1.465,-8.116 3.019,-11.967 z"
     id="path45" />
  <path
     fill="#663a1a"
     d="m 523.344,872.99 1.191,1.16 c 0.605,3.362 0.056,6.801 -0.277,10.224 l -1.241,-1.193 c -0.575,-3.357 -0.018,-6.781 0.327,-10.191 z"
     id="path46" />
  <path
     fill="#663a1a"
     d="m 556.024,854.543 c 3.592,2.67 3.529,6.396 4.406,11.087 -2.455,-3.017 -3.374,-7.35 -4.406,-11.087 z"
     id="path47" />
  <path
     fill="#663a1a"
     d="m 570.601,865.802 c 3.412,2.213 2.817,7.397 2.849,11.105 -1.617,-5.268 -2.006,-5.35 -2.849,-11.105 z"
     id="path48" />
  <path
     fill="#663a1a"
     d="m 543.514,855.384 c 0.442,2.369 -0.925,8.994 -1.385,11.757 -2.12,-4.142 -0.185,-7.782 1.385,-11.757 z"
     id="path49" />
  <path
     fill="#663a1a"
     d="m 535.964,859.894 c 1.469,3.743 0.08,7.269 -1.028,11.062 -0.909,-3.813 0.089,-7.356 1.028,-11.062 z"
     id="path50" />
  <path
     fill="#663a1a"
     d="m 564.397,859.359 c 1.634,4.021 1.851,6.111 2.537,10.434 -0.456,-0.304 -1.139,-1.016 -1.566,-1.424 -1.069,-3.79 -0.954,-5.095 -0.971,-9.01 z"
     id="path51" />
  <path
     fill="#bf9d53"
     d="m 510.527,821.02 c 7.913,0.53 15.586,4.322 22.636,7.697 -13.831,7.782 -30.666,28.365 -40.334,40.595 -3.454,4.835 -6.802,9.743 -10.043,14.723 2.592,-14.673 19.614,-49.104 27.741,-63.015 z"
     id="path52" />
  <path
     fill="#bf9d53"
     d="m 538.928,710.106 c 3.623,2.545 -1.233,14.79 -2.82,18.084 -5.251,10.904 -13.807,15.325 -24.836,19.046 l -1.068,-0.588 -0.029,-0.951 c 7.584,-12.397 17.861,-25.949 28.753,-35.591 z"
     id="path53" />
  <path
     fill="#bf9d53"
     d="m 546.436,887.933 c 4.657,-0.396 13.174,0.55 15.332,5.395 -0.127,0.622 -0.253,1.243 -0.38,1.864 -3.153,1.708 -5.988,4.01 -8.522,6.269 -3.764,1.838 -13.232,-3.501 -12.06,-9.22 1.941,-2.371 3.014,-2.781 5.63,-4.308 z"
     id="path54" />
  <path
     fill="#582324"
     d="m 631.576,895.542 c -4.94,-9.432 -9.296,-23.077 -13.389,-33.215 -12.716,-31.501 -26.339,-61.057 -53.479,-82.724 -7.628,-6.292 -16.001,-11.384 -24.441,-16.474 -6.077,-3.665 -14.731,-7.513 -19.842,-12.28 45.027,21.731 66.965,37.652 89.967,85.049 5.636,11.612 11.091,28.247 16.188,38.703 l 0.342,0.693 0.715,0.712 c 0.941,-0.673 1.205,-0.819 2.037,-1.62 0.821,7.034 1.455,14.089 1.902,21.156 z"
     id="path55" />
  <defs
     id="defs56">
    <linearGradient
       id="gradient_0"
       gradientUnits="userSpaceOnUse"
       x1="571.47443"
       y1="860.37494"
       x2="588.47333"
       y2="845.71307">
      <stop
         offset="0"
         stop-color="#441A09"
         id="stop55" />
      <stop
         offset="1"
         stop-color="#602F12"
         id="stop56" />
    </linearGradient>
  </defs>
  <path
     fill="url(#gradient_0)"
     d="m 532.611,814.255 c 39.967,9.634 61.775,35.898 85.808,68.056 0.056,0.01 0.111,0.02 0.167,0.03 l 1.627,-1.967 c 2.688,7.224 4.302,11.539 5.689,19.143 -28.841,-36.61 -44.443,-69.236 -93.659,-83.763 z"
     id="path56"
     style="fill:url(#gradient_0)" />
  <path
     fill="#582324"
     d="m 626.922,875.294 c 0.908,-2.665 -1.961,-13.687 -2.589,-17.152 -5.948,-32.834 -13.942,-65.849 -29.943,-95.393 -3.225,-5.955 -6.952,-11.692 -10.173,-17.626 2.777,0.772 8.238,11.44 10.001,14.486 21.316,36.847 28.73,73.646 35.456,114.777 -0.832,0.801 -1.096,0.947 -2.037,1.62 z"
     id="path57" />
  <path
     fill="#582324"
     d="m 618.586,882.341 c -11.682,-33.362 -27.852,-68.853 -53.558,-93.786 -3.936,-3.817 -21.847,-16.732 -23.52,-19.248 2.411,0.295 11.443,7.352 14.098,9.291 33.803,24.695 49.415,64.298 64.607,101.776 z"
     id="path58" />
  <path
     fill="#663a1a"
     d="m 565.515,628.709 c 2.431,0.191 3.025,0.009 4.701,1.549 1.734,3.373 0.551,5.611 -0.552,9.302 -0.319,0.044 -0.638,0.089 -0.957,0.133 -0.486,-4.858 -0.722,-6.909 -3.192,-10.984 z"
     id="path59" />
  <path
     fill="#582324"
     d="m 531.609,628.796 c 1.285,0.157 1.201,0.122 2.288,0.823 -1.562,5.137 -2.38,5.068 -1.445,10.238 l -0.81,-0.024 c -2.463,-4.734 -2.899,-6.751 -0.033,-11.037 z"
     id="path60" />
  <path
     fill="#582324"
     d="m 516.649,812.23 -0.682,0.008 0.186,-0.124 c 5.96,0.277 10.693,0.56 16.458,2.141 l -0.368,1.499 c -5.383,-1.105 -10.252,-2.154 -15.594,-3.524 z"
     id="path61" />
  <path
     fill="#582324"
     d="m 574.068,629.282 c 0.605,0.221 1.423,0.687 2.022,0.996 0.993,2.457 0.214,4.675 -0.299,7.392 l -1.351,-0.428 c -1.048,-2.853 -0.614,-4.91 -0.372,-7.96 z"
     id="path62" />
  <path
     fill="#bf9d53"
     d="m 211.689,744.326 c -6.318,-5.629 -11.36,-11.397 -12.036,-20.109 -0.816,-10.507 9.806,-20.777 20.014,-20.712 15.852,0.1 28.369,14.459 39.697,23.952 2.578,2.191 5.326,5.825 8.171,7.074 l 0.188,-0.605 c -11.169,-13.616 -45.572,-45.783 -23.797,-63.587 4.477,-3.595 10.222,-5.219 15.918,-4.499 8.755,1.138 13.052,5.859 18.091,12.208 5.685,-6.224 11.538,-11.918 20.599,-12.325 5.216,-0.252 10.322,1.564 14.209,5.053 19.493,17.834 -10.212,46.309 -20.936,59.432 -1.628,1.991 -5.085,4.828 -5.712,7.065 2.128,-0.635 6.261,-5.777 8.223,-7.39 11.111,-9.136 26.948,-27.24 42.671,-25.709 23.46,2.283 24.938,28.747 6.582,40.221 6.557,4.845 10.867,8.947 12.294,17.277 1.892,11.053 -5.174,21.944 -16.501,23.369 -11.219,1.411 -20.533,-5.806 -28.888,-12.211 -8.955,-6.614 -18.916,-17.196 -27.53,-23.152 11.822,14.311 36.822,35.604 36.002,55.862 -0.194,4.784 -3.833,9.996 -7.592,12.839 -12.055,8.355 -21.381,2.36 -29.891,-6.017 5.041,16.96 8.279,23.259 21.884,34.673 -2.266,2.89 -4.78,6.26 -7.122,9.027 -13.609,-15.858 -17.139,-21.021 -21.714,-42.133 -6.35,5.653 -10.627,8.757 -19.551,8.289 -11.367,-0.595 -19.479,-10.511 -17.535,-21.702 2.905,-16.722 19.893,-33.428 31.168,-45.351 l -0.253,-1.407 c -9.465,9.887 -33.285,31.486 -47.507,31.429 -21.1,-0.084 -28.198,-22.915 -12.58,-37.806 1.117,-1.05 2.262,-2.068 3.434,-3.055 z"
     id="path63" />
  <path
     fill="#9c7a40"
     d="m 268.342,753.758 c 1.688,-1.884 1.577,-2.363 3.633,-3.084 -0.604,2.299 -1.527,2.627 -3.38,4.491 z"
     id="path64" />
  <path
     fill="#9c7a40"
     d="m 268.922,736.329 0.607,-0.134 c 1.916,0.751 2.462,2.165 3.598,3.964 -2.983,-1.413 -2.91,-1.387 -4.205,-3.83 z"
     id="path65" />
  <path
     fill="#bf9d53"
     d="m 814.855,739.286 c -8.442,-13.703 -31.014,-32.215 -33.991,-47.558 -4.838,-24.933 23.864,-36.788 40.21,-13.428 6.729,-7.804 13.733,-13.518 24.542,-12.154 10.2,1.287 15.997,9.446 16.265,18.979 0.469,16.694 -21.009,38.585 -31.192,49.424 l 1.052,0.47 c 9.981,-9.638 33.432,-32.984 47.112,-31.32 25.459,3.095 23.993,25.932 9.012,40.959 26.472,24.316 0.316,53.21 -26.478,34.248 -9.754,-6.903 -19.023,-15.369 -28.144,-23.192 l -0.718,1.532 c 11.515,12.236 41.445,41.696 24.581,58.981 -3.912,3.968 -9.292,6.137 -14.861,5.992 -7.699,-0.194 -12.347,-3.97 -17.39,-9.147 -6.197,21.643 -5.215,25.161 -22.009,42.007 -2.837,-2.679 -4.471,-4.751 -6.934,-7.798 6.649,-5.491 21.326,-22.969 20.504,-31.892 -2.072,-0.802 -9.316,6.613 -13.719,6.956 -9.626,1.443 -21.658,-7.606 -22.258,-17.58 -1.168,-19.399 23.448,-39.557 34.377,-53.364 l -0.365,-0.3 c -3.59,3.289 -7.205,6.553 -10.843,9.79 -13.968,12.324 -40.444,37.379 -56.831,15.806 -9.353,-12.313 -1.199,-24.776 9.004,-32.47 -1.115,-0.804 -2.217,-1.627 -3.304,-2.468 -5.08,-3.954 -8.59,-9.4 -9.258,-15.912 -0.571,-5.751 1.254,-11.483 5.043,-15.845 18.761,-21.358 52.701,16.515 66.593,29.284 z"
     id="path66" />
  <path
     fill="#663a1a"
     d="m 824.023,748.679 c 4.064,2.532 5.598,3.833 9.22,7.035 l -0.718,1.532 z"
     id="path67" />
  <path
     fill="#8b6434"
     d="m 830.689,734.549 1.052,0.47 c -1.452,1.551 -2.806,3.451 -4.783,3.906 0.619,-1.969 2.158,-2.993 3.731,-4.376 z"
     id="path68" />
  <path
     fill="#bf9d53"
     d="m 754.121,893.288 c 6.216,-0.207 11.147,-0.136 16.472,3.73 16.707,12.131 12.981,44.599 -9.2,48.02 -26.693,1.545 -34.003,-26.218 -19.628,-45.01 2.793,-3.651 7.954,-5.481 12.356,-6.74 z"
     id="path69" />
  <path
     fill="#582324"
     d="m 754.407,901.72 c 13.149,-0.63 13.443,13.081 12.556,22.931 -0.532,5.897 -2.715,9.142 -7.395,12.57 -14.917,-0.409 -15.297,-27.278 -5.161,-35.501 z"
     id="path70" />
  <path
     fill="#bf9d53"
     d="m 247.222,893.492 c 11.976,-0.09 23.953,-0.071 35.929,0.057 0.038,3.464 0.33,6.645 -0.648,9.931 -8.102,-1.082 -12.288,-1.238 -20.489,-1.214 l 0.019,11.17 c 5.086,-0.185 10.299,-0.073 15.398,-0.03 l -0.054,9.024 c -5.138,-0.361 -10.278,-0.687 -15.421,-0.978 0.04,3.706 -1.078,11.465 0.929,14.267 l 2.265,0.329 c 10.794,0.009 13.369,0.594 22.72,-5.165 -0.735,4.603 -1.435,9.211 -2.1,13.825 l -39.764,0.02 c 4.166,-12.701 3.607,-37.131 0.468,-50.224 z"
     id="path71" />
  <path
     fill="#bf9d53"
     d="m 315.287,892.738 c 15.377,-1.111 15.852,2.094 15.176,15.458 -2.26,-2.224 -3.962,-3.57 -6.435,-5.53 -4.732,-0.879 -10.666,-2.326 -13.088,2.722 0.401,8.422 14.759,7.795 22.396,18.285 l 0.535,0.741 c 0.871,15.372 -4.019,20.599 -19.384,21.562 -14.292,-1.309 -17.738,-0.155 -16.627,-15.911 5.911,5.492 16.368,10.7 23.096,3.687 2.36,-6.762 -11.606,-10.101 -16.121,-13.614 -14.964,-11.642 -6.298,-24.928 10.452,-27.4 z"
     id="path72" />
  <path
     fill="#bf9d53"
     d="m 834.813,893.472 c 9.701,-0.092 19.403,-0.052 29.104,0.12 l -0.019,9.546 c -5.194,-0.041 -15.351,-0.352 -20.147,0.208 -1.459,1.603 -1.125,5.378 -0.561,5.552 10.991,3.392 15.072,0.548 23.765,10.289 2.61,12.254 0.788,20.976 -12.131,25.279 -4.111,0.951 -8.389,1.134 -12.582,0.916 -11.449,-0.595 -10.403,-9.694 -10.134,-17.65 4.684,6.404 14.843,14.018 21.104,5.179 1.61,-2.282 2.148,-5.151 1.473,-7.861 -0.567,-2.324 -2.106,-4.292 -4.225,-5.403 -5.288,-2.84 -11.488,-0.495 -16.78,1.106 0.289,-8.876 0.385,-18.502 1.133,-27.281 z"
     id="path73" />
  <path
     fill="#bf9d53"
     d="m 798.07,893.385 0.526,-0.023 c 5.981,-0.245 13.762,-0.223 18.187,4.716 12.049,13.448 -5.188,28.219 -14.176,37.33 10.539,0.243 12.886,0.297 22.483,-3.804 -0.434,4.353 -0.947,8.698 -1.538,13.033 l -16.717,0.016 c -7.612,0.02 -15.223,-0.026 -22.834,-0.136 6.825,-10.967 18.61,-19.245 22.912,-31.745 1.627,-4.73 1.108,-9.262 -4.507,-10.13 -6.576,-1.017 -10.212,2.553 -15.013,6.242 l -0.127,-10.535 c 4.076,-2.74 6.188,-3.666 10.804,-4.964 z"
     id="path74" />
  <path
     fill="#bf9d53"
     d="m 703.149,893.416 c 12.702,-0.772 19.034,0.704 23.237,13.816 -3.396,13.4 -10.079,18.544 -19.765,28.163 9.822,0.11 12.589,0.489 21.458,-3.772 -0.022,4.778 -0.194,8.187 -0.645,12.944 -4.371,0.262 -11.727,0.074 -16.297,0.086 -7.753,0.087 -15.508,0.022 -23.258,-0.194 6.565,-10.275 19.671,-19.466 23.775,-31.554 0.681,-2.153 1.066,-5.417 -0.378,-7.404 -5.415,-7.456 -14.131,-0.609 -18.805,2.956 l -0.039,-10.526 c 3.95,-2.533 6.272,-3.333 10.717,-4.515 z"
     id="path75" />
  <path
     fill="#bf9d53"
     d="m 343.219,893.438 44.114,0.091 c 0.181,2.903 0.97,8.013 -0.622,10.15 -0.631,0.189 -12.41,-1.405 -15.45,-1.359 -0.255,10.887 -0.349,21.778 -0.282,32.668 0.455,3.514 1.422,6.533 2.396,9.93 -5.98,0.172 -12.291,0.045 -18.298,0.023 4.121,-7.902 2.643,-31.952 2.597,-42.376 -5.64,-0.194 -12.76,1.667 -14.838,0.639 -0.93,-2.722 -0.016,-6.724 0.383,-9.766 z"
     id="path76" />
  <path
     fill="#bf9d53"
     d="m 396.276,930.683 c 4.128,-0.349 7.802,2.611 8.341,6.72 0.539,4.11 -2.248,7.917 -6.327,8.645 -2.811,0.501 -5.671,-0.583 -7.443,-2.823 -1.772,-2.24 -2.169,-5.273 -1.035,-7.895 1.135,-2.621 3.618,-4.407 6.464,-4.647 z"
     id="path77" />
  <path
     fill="#bf9d53"
     d="m 783.065,267.938 c 9.608,-0.619 22.186,-0.264 32.089,-0.367 l 78.357,-0.149 47.836,-0.056 c 9.14,-0.006 22.286,-0.414 31.011,0.823 0.64,9.261 0.229,28.155 0.213,37.714 l 0.029,65.009 0.04,212.63 0.017,176.206 c 0.003,36.53 1.437,81.79 -2.92,117.266 -4.99,40.194 -16.801,79.242 -34.925,115.461 -61.096,123.705 -200.105,226.645 -313.262,300.135 -14.478,9.4 -29.488,18.79 -44.24,27.78 -6.973,4.25 -21.333,13.94 -28.53,16.38 -27.928,-15.73 -62.82,-38.14 -89.732,-56.04 -96.947,-64.51 -198.545,-140.76 -265.317,-237.51 -32.332,-46.849 -53.18,-98.331 -62.409,-154.329 -5.604,-34.007 -4.986,-55.958 -5.12,-89.976 l -0.162,-84.934 0.181,-286.961 -0.21,-113.762 c -0.008,-5.649 -0.37,-41.286 0.346,-44.975 l 1.919,-0.619 c 21.554,-0.9 49.376,-0.02 71.668,-0.013 l 134.375,-0.232 c 2.955,3.54 6.126,8.057 8.91,11.816 -68.078,0.727 -137.548,0.146 -205.697,0.071 1.135,12.76 0.403,37.237 0.393,50.598 l -0.004,94.215 0.022,302.77 -0.021,67.854 c -0.006,40.998 -0.343,69.763 8.28,110.38 8.177,38.665 22.784,75.683 43.212,109.507 59.617,100.31 167.019,182.41 262.244,247.28 31.87,21.7 65.616,41.5 97.945,62.52 23.515,-16.2 48.906,-30.49 72.758,-46.38 123.392,-82.19 274.858,-191.99 321.293,-339.183 9.191,-29.352 14.74,-59.722 16.523,-90.428 0.549,-9.846 0.273,-21.863 0.273,-31.849 l -0.017,-53.285 -0.007,-121.154 -0.006,-235.599 c 0.001,-42.003 -0.552,-85.38 0.169,-127.3 l -22.416,0.115 -163.64,-0.106 c 2.969,-4.445 4.822,-7.4 8.532,-11.323 z"
     id="path78" />
  <path
     fill="#e6dec0"
     d="m 680.011,443.733 48.698,-0.057 c 42.021,0.126 73.283,20.003 72.516,65.864 -0.331,19.806 -6.59,34.575 -20.923,48.315 -20.444,16.761 -40.639,15.941 -65.267,15.903 l -35.125,-0.099 c 2.448,-3.409 4.677,-6.933 5.771,-11.03 2.48,-9.288 2.584,-93.771 0.693,-105.214 -0.83,-5.023 -3.816,-9.367 -6.363,-13.682 z"
     id="path79" />
  <path
     fill="#1e1e1d"
     d="m 717.693,463.348 c 13.894,-0.389 26.872,-1.273 38.192,8.362 10.113,8.607 13.471,21.012 14.443,33.782 1.013,13.303 -2.121,27.841 -10.932,38.162 -12.5,11.687 -26.149,10.971 -41.847,10.626 0.279,-30.254 -0.306,-60.669 0.144,-90.932 z"
     id="path80" />
  <path
     fill="#e6dec0"
     d="m 590.923,443.896 c 9.825,-0.316 20.764,-0.102 30.676,-0.122 14.402,38.751 26.778,79.318 42.937,117.46 1.872,4.418 5.601,8.875 8.788,12.427 l -45.241,0.047 c 5.542,-9.945 1.334,-19.686 -2.895,-29.322 -11.507,-0.641 -27.541,-0.188 -39.382,-0.182 -1.439,3.042 -2.673,6.176 -3.695,9.383 -2.723,8.335 -2.527,12.479 1.311,20.111 l -35.126,0.024 c 12.963,-14.385 20.183,-41.827 26.852,-60.479 6.865,-19.199 15.08,-40.142 19.749,-59.805 -0.919,-3.638 -2.402,-6.157 -3.974,-9.542 z"
     id="path81" />
  <path
     fill="#1e1e1d"
     d="m 604.737,485.022 c 1.675,1.588 12.667,35.593 14.228,40.094 l -14.278,0.102 -13.646,-0.019 z"
     id="path82" />
  <path
     fill="#e6dec0"
     d="m 841.936,443.937 c 9.575,-0.288 19.455,-0.124 29.057,-0.081 9.978,25.449 18.15,52.008 27.924,77.58 7.189,18.811 11.19,36.648 24.799,52.205 l -45.395,0.039 c 3.374,-9.879 2.307,-20.334 -3.28,-29.279 -12.01,-0.504 -27.019,-0.165 -39.152,-0.072 -1.961,6.022 -5.101,14.434 -5.146,20.71 -0.019,2.687 3.198,5.133 2.527,8.488 -0.947,0.49 -32.094,0.198 -35.587,0.195 14.282,-13.553 21.673,-42.878 28.47,-61.757 4.532,-12.409 8.938,-24.864 13.219,-37.362 1.877,-5.479 3.822,-11.187 5.597,-16.679 1.908,-5.905 -3.217,-11.189 -3.033,-13.987 z"
     id="path83" />
  <path
     fill="#1e1e1d"
     d="m 854.852,485.637 c 3.227,2.835 12.712,33.675 13.745,39.25 l -10.829,0.033 -15.189,0.006 c 1.928,-9.354 9.182,-28.283 12.273,-39.289 z"
     id="path84" />
  <path
     fill="#e6dec0"
     d="m 351.895,443.888 c 22.831,-0.772 57.197,-0.468 80.101,0.067 0.656,10.684 2.029,21.457 3.262,32.1 -15.194,-15.347 -25.435,-11.604 -45.915,-11.534 -0.158,11.137 -0.173,22.276 -0.045,33.413 10.82,0 24.278,0.811 34.781,-0.913 1.581,-0.26 5.571,-2.541 7.162,-3.448 -0.257,9.58 -0.287,20.986 0.194,30.439 -11.765,-9.262 -26.862,-6.741 -42.124,-6.638 l -0.091,26.43 0.139,10.147 c 25.913,0.167 40.866,4.886 57.902,-17.208 -2.03,9.325 -5.475,28.827 -8.316,36.945 l -87.002,0.027 c 3.863,-5.557 6.036,-10.162 6.126,-17.129 0.424,-32.745 0.957,-65.807 -0.228,-98.503 -0.135,-3.748 -4.718,-10.611 -5.946,-14.195 z"
     id="path85" />
  <path
     fill="#e6dec0"
     d="m 499.504,441.221 c 13.416,-1.789 25.249,1.694 37.56,6.244 0.04,9.893 0.255,20.354 -0.264,30.187 -7.089,-8.215 -15.429,-15.624 -26.375,-16.96 -8.564,-1.046 -23.503,-0.321 -24.136,10.692 -0.403,2.913 0.198,7.091 2.311,9.418 13.082,14.405 34.422,18.954 46.989,34.429 7.034,8.662 8.595,15.932 7.991,26.745 -1.428,25.584 -27.369,36.93 -50.073,34.723 -14.487,-1.292 -20.504,-3.671 -33.792,-8.8 0.352,-11.165 -0.028,-22.467 -0.277,-33.643 9.556,10.819 19.547,20.647 34.589,22.726 9.753,1.7 24.813,-3.772 22.024,-16.075 -2.219,-9.991 -15.137,-15.559 -23.331,-20.099 -19.938,-11.049 -37.72,-21.945 -33.879,-47.667 3.274,-21.927 21.046,-29.097 40.663,-31.92 z"
     id="path86" />
  <path
     fill="#e6dec0"
     d="m 169.107,443.75 c 34.531,-0.789 71.922,-0.065 106.687,-0.073 0.718,11.104 1.821,20.866 3.153,31.874 -12.569,-15.846 -23.037,-13.255 -41.477,-13.181 -1.111,27.792 -0.203,61.684 -0.197,89.94 0.265,9.633 2.041,13.659 7.554,21.378 l -44.201,0.048 c 9.014,-12.168 7.597,-26.946 7.57,-41.447 -0.043,-23.178 0.469,-47.041 -0.317,-70.161 -21.213,0.035 -28.442,-2.375 -42.504,14.683 0.202,-7.356 2.855,-25.01 3.732,-33.061 z"
     id="path87" />
  <path
     fill="#bf9d53"
     d="m 371.153,326.508 c 2.127,2.821 0.242,8.714 2.576,11.7 6.765,8.656 31.264,2.98 41.832,4.568 7.745,1.164 12.587,2.544 19.308,3.698 9.02,-5.674 7.731,-10.209 7.519,-19.716 9.341,11.233 13.456,20.929 -1.225,30.478 3.499,18.23 0.352,24.337 -15.771,32.64 5.21,8.482 11.878,17.324 17.741,25.46 2.412,3.346 6.761,7.383 8.741,10.753 l -0.969,0.426 -24.264,0.257 c -4.004,-7.279 -8.009,-14.958 -12.158,-22.096 -0.501,-0.861 -9.84,-11.801 -10.039,-11.948 l -1.002,0.363 c -1.944,9.123 -0.302,24.28 3.647,33.469 -9.896,0.13 -19.794,0.136 -29.691,0.019 6.204,-11.916 4.194,-23.956 4.377,-37.024 0.137,-9.854 0.122,-20.293 -0.375,-30.105 -10.099,-4.921 -13.828,-5.699 -17.296,-17.263 1.428,-7.778 2.235,-9.337 7.049,-15.679 z"
     id="path88" />
  <path
     fill="#1e1e1d"
     d="m 402.985,354.517 c 15.747,-0.406 19.853,3.815 18.607,19.542 -1.078,1.654 -2.277,3.309 -3.413,4.93 -5.567,3.681 -8.984,3.239 -15.45,3.177 -0.116,-9.072 0.138,-18.546 0.256,-27.649 z"
     id="path89" />
  <path
     fill="#e6dec0"
     d="m 290.294,443.947 c 12.668,-0.556 29.903,-0.306 42.65,0.04 -4.144,6.557 -6.835,12.653 -7.035,20.581 -0.389,16.053 -0.468,31.661 -0.307,47.783 0.159,15.878 -0.883,33.164 1.191,48.912 0.58,4.402 4.707,9.387 7.552,12.618 -13.673,-0.64 -30.59,-0.194 -44.692,-0.39 2.939,-3.747 6.087,-9.104 6.414,-13.986 2.147,-32.086 0.715,-64.793 0.786,-96.985 0.011,-5.257 -6.814,-16.609 -6.559,-18.573 z"
     id="path90" />
  <path
     fill="#bf9d53"
     d="m 589.103,342.651 c 4.976,-0.164 10.33,-0.098 15.339,-0.131 9.652,24.426 20.469,64.003 35.274,84.117 l -30.104,-0.019 c 0.259,-5.144 0.707,-18.252 -4.957,-20.627 l -24.892,-0.011 c -3.79,8.865 -4.141,11.241 -2.749,20.665 l -23.401,0.008 c 13.125,-18.088 25.055,-61.28 35.49,-84.002 z"
     id="path91" />
  <path
     fill="#1e1e1d"
     d="m 592.294,368.039 c 1.969,1.385 8.987,23.158 10.162,26.692 l -7.642,0.069 -12.051,0.062 c 2.885,-8.43 7.482,-18.362 9.531,-26.823 z"
     id="path92" />
  <path
     fill="#bf9d53"
     d="m 474.251,342.696 54.528,-0.021 c 0.106,6.676 0.035,13.533 0.045,20.226 l -0.641,-0.635 c -8.391,-8.245 -18.405,-6.397 -29.959,-6.305 l 0.011,21.642 c 6.178,0.101 11.56,0.103 17.745,-0.128 2.032,-1.226 4.051,-2.859 5.956,-4.307 -0.272,6.414 -0.176,13.45 -0.198,19.922 -7.808,-5.464 -13.967,-4.127 -23.59,-3.95 v 15.206 l 10e-4,9.128 c 13.792,0.134 26.357,2.717 35.734,-9.159 -1.104,7.632 -2.517,14.283 -2.811,22.045 -18.887,0.305 -38.458,0.043 -57.399,0.044 6.362,-13.846 3.708,-28.899 4.237,-43.811 0.336,-9.466 -0.06,-19.552 -0.36,-29.026 -0.147,-4.663 -2.88,-5.503 -3.299,-10.871 z"
     id="path93" />
  <path
     fill="#582324"
     d="m 651.419,1109.2 c 33.081,-1.2 65.115,-0.07 98.205,-0.29 l 38.386,-0.22 c 8.816,-0.13 20.864,-0.75 29.391,0.22 -4.099,4.22 -12.074,12.86 -16.681,15.98 l -109.588,-0.14 c -7.295,0 -36.754,1.13 -40.555,-0.41 -0.162,-1.16 -0.193,-2.64 -0.257,-3.84 1.166,-3.88 1.076,-7.26 1.099,-11.3 z"
     id="path94" />
  <path
     fill="#582324"
     d="m 411.757,1108.75 c 11.191,-0.6 21.882,-0.22 33.058,0.27 0.328,5.52 0.113,10.64 -0.05,16.15 -42.984,-0.53 -85.973,-0.66 -128.961,-0.38 l -18.685,-0.08 c -4.762,-4.25 -10.998,-10.96 -15.611,-15.65 z"
     id="path95" />
  <path
     fill="#582324"
     d="m 250.965,1076.67 c 0.6,-0.06 1.2,-0.11 1.801,-0.15 9.659,-0.72 25.393,-0.14 35.574,-0.13 l 70.159,0.05 60.148,0.04 c 12.525,-0.07 25.41,-0.33 37.929,0.19 3.176,0.13 2.572,0.27 5.089,2.44 -1.766,3.14 -3.483,6.32 -5.148,9.52 -2.455,-0.68 -14.872,-0.57 -17.991,-0.59 -16.492,-0.12 -32.986,-0.09 -49.477,0.11 l -78.404,-0.13 c -16.317,0.01 -32.922,0.48 -49.135,0.33 -3.779,-3.5 -7.194,-7.74 -10.545,-11.68 z"
     id="path96" />
  <path
     fill="#582324"
     d="m 646.046,1076.37 c 9.647,-0.48 21.842,-0.03 31.755,0.02 l 53.249,0.04 c 37.201,0 79.571,-1.01 116.408,0.22 -3.075,3.79 -5.635,6.89 -9.018,10.46 -1.567,0.95 -2.661,1.3 -4.546,1.29 -18.731,-0.1 -37.554,-0.41 -56.277,-0.34 l -133.624,0.23 c -3.558,-2.6 -2.988,-7.39 -0.905,-11.07 0.395,-0.69 2.075,-0.71 2.958,-0.85 z"
     id="path97" />
  <path
     fill="#bf9d53"
     d="m 659.648,342.349 c 9.545,0.225 19.095,0.23 28.64,0.016 -5.239,12.175 -4.048,21.379 -3.999,34.348 l 0.175,36.762 c 8.887,-0.39 29.81,1.735 34.53,-8.08 0.729,3.087 -0.256,7.785 -0.748,11.076 -0.577,3.399 -0.736,6.747 -0.969,10.184 l -57.425,-0.033 c 7.067,-15.418 3.241,-37.637 4.197,-54.591 0.555,-9.845 0.453,-20.941 -4.401,-29.682 z"
     id="path98" />
  <path
     fill="#582324"
     d="m 651.571,1145.5 128.106,0.03 c -3.467,2.43 -6.718,5.47 -9.892,8.3 -1.897,1.65 -7.246,6.59 -9.571,6.66 -35.541,1 -73.375,1.14 -108.796,0.49 -0.097,-5.16 -0.046,-10.32 0.153,-15.48 z"
     id="path99" />
  <path
     fill="#582324"
     d="m 323.268,1145.7 c 40.379,-0.33 80.76,-0.4 121.14,-0.21 0.201,4.07 0.599,11.04 0.083,14.9 l -1.024,0.71 -105.897,0.09 c -2.586,-2.26 -14.85,-12.52 -15.691,-14.94 z"
     id="path100" />
  <path
     fill="#bf9d53"
     d="m 629.231,268.337 0.545,-0.037 c 1.455,1.111 2.991,7.81 3.853,10.392 -47.697,-0.881 -98.155,-0.077 -146.063,-0.078 -1.576,0.072 -1.48,0.08 -2.98,-0.416 -0.933,-2.29 1.454,-7.046 2.45,-9.559 46.768,-0.698 95.721,1.072 142.195,-0.302 z"
     id="path101" />
</svg>
